<?xml version="1.0" encoding="utf-8" standalone="no"?>
<!DOCTYPE svg PUBLIC "-//W3C//DTD SVG 1.1//EN"
  "http://www.w3.org/Graphics/SVG/1.1/DTD/svg11.dtd">
<svg xmlns:xlink="http://www.w3.org/1999/xlink" width="576pt" height="576pt" viewBox="0 0 576 576" xmlns="http://www.w3.org/2000/svg" version="1.1">
 <metadata>
  <rdf:RDF xmlns:dc="http://purl.org/dc/elements/1.1/" xmlns:cc="http://creativecommons.org/ns#" xmlns:rdf="http://www.w3.org/1999/02/22-rdf-syntax-ns#">
   <cc:Work>
    <dc:type rdf:resource="http://purl.org/dc/dcmitype/StillImage"/>
    <dc:date>2026-07-17T23:11:51.144863</dc:date>
    <dc:format>image/svg+xml</dc:format>
    <dc:creator>
     <cc:Agent>
      <dc:title>Matplotlib v3.10.6, https://matplotlib.org/</dc:title>
     </cc:Agent>
    </dc:creator>
   </cc:Work>
  </rdf:RDF>
 </metadata>
 <defs>
  <style type="text/css">*{stroke-linejoin: round; stroke-linecap: butt}</style>
 </defs>
 <g id="figure_1">
  <g id="patch_1">
   <path d="M 0 576 
L 576 576 
L 576 0 
L 0 0 
z
" style="fill: #ffffff"/>
  </g>
  <g id="axes_1">
   <g id="patch_2">
    <path d="M 66.535063 527.978062 
L 561.744 527.978062 
L 561.744 30.447563 
L 66.535063 30.447563 
z
" style="fill: #ffffff"/>
   </g>
   <g id="matplotlib.axis_1">
    <g id="xtick_1">
     <g id="line2d_1">
      <path d="M 119.462799 527.978062 
L 119.462799 30.447563 
" clip-path="url(#p42679bec7f)" style="fill: none; stroke-dasharray: 3.7,1.6; stroke-dashoffset: 0; stroke: #cccccc; stroke-opacity: 0.7"/>
     </g>
     <g id="text_1">
      <!-- 10 -->
      <g style="fill: #262626" transform="translate(113.901862 544.635875) scale(0.1 -0.1)">
       <defs>
        <path id="ArialMT-31" d="M 2384 0 
L 1822 0 
L 1822 3584 
Q 1619 3391 1289 3197 
Q 959 3003 697 2906 
L 697 3450 
Q 1169 3672 1522 3987 
Q 1875 4303 2022 4600 
L 2384 4600 
L 2384 0 
z
" transform="scale(0.015625)"/>
        <path id="ArialMT-30" d="M 266 2259 
Q 266 3072 433 3567 
Q 600 4063 929 4331 
Q 1259 4600 1759 4600 
Q 2128 4600 2406 4451 
Q 2684 4303 2865 4023 
Q 3047 3744 3150 3342 
Q 3253 2941 3253 2259 
Q 3253 1453 3087 958 
Q 2922 463 2592 192 
Q 2263 -78 1759 -78 
Q 1097 -78 719 397 
Q 266 969 266 2259 
z
M 844 2259 
Q 844 1131 1108 757 
Q 1372 384 1759 384 
Q 2147 384 2411 759 
Q 2675 1134 2675 2259 
Q 2675 3391 2411 3762 
Q 2147 4134 1753 4134 
Q 1366 4134 1134 3806 
Q 844 3388 844 2259 
z
" transform="scale(0.015625)"/>
       </defs>
       <use xlink:href="#ArialMT-31"/>
       <use xlink:href="#ArialMT-30" transform="translate(55.615234 0)"/>
      </g>
     </g>
    </g>
    <g id="xtick_2">
     <g id="line2d_2">
      <path d="M 180.299278 527.978062 
L 180.299278 30.447563 
" clip-path="url(#p42679bec7f)" style="fill: none; stroke-dasharray: 3.7,1.6; stroke-dashoffset: 0; stroke: #cccccc; stroke-opacity: 0.7"/>
     </g>
     <g id="text_2">
      <!-- 20 -->
      <g style="fill: #262626" transform="translate(174.73834 544.635875) scale(0.1 -0.1)">
       <defs>
        <path id="ArialMT-32" d="M 3222 541 
L 3222 0 
L 194 0 
Q 188 203 259 391 
Q 375 700 629 1000 
Q 884 1300 1366 1694 
Q 2113 2306 2375 2664 
Q 2638 3022 2638 3341 
Q 2638 3675 2398 3904 
Q 2159 4134 1775 4134 
Q 1369 4134 1125 3890 
Q 881 3647 878 3216 
L 300 3275 
Q 359 3922 746 4261 
Q 1134 4600 1788 4600 
Q 2447 4600 2831 4234 
Q 3216 3869 3216 3328 
Q 3216 3053 3103 2787 
Q 2991 2522 2730 2228 
Q 2469 1934 1863 1422 
Q 1356 997 1212 845 
Q 1069 694 975 541 
L 3222 541 
z
" transform="scale(0.015625)"/>
       </defs>
       <use xlink:href="#ArialMT-32"/>
       <use xlink:href="#ArialMT-30" transform="translate(55.615234 0)"/>
      </g>
     </g>
    </g>
    <g id="xtick_3">
     <g id="line2d_3">
      <path d="M 241.135757 527.978062 
L 241.135757 30.447563 
" clip-path="url(#p42679bec7f)" style="fill: none; stroke-dasharray: 3.7,1.6; stroke-dashoffset: 0; stroke: #cccccc; stroke-opacity: 0.7"/>
     </g>
     <g id="text_3">
      <!-- 30 -->
      <g style="fill: #262626" transform="translate(235.574819 544.635875) scale(0.1 -0.1)">
       <defs>
        <path id="ArialMT-33" d="M 269 1209 
L 831 1284 
Q 928 806 1161 595 
Q 1394 384 1728 384 
Q 2125 384 2398 659 
Q 2672 934 2672 1341 
Q 2672 1728 2419 1979 
Q 2166 2231 1775 2231 
Q 1616 2231 1378 2169 
L 1441 2663 
Q 1497 2656 1531 2656 
Q 1891 2656 2178 2843 
Q 2466 3031 2466 3422 
Q 2466 3731 2256 3934 
Q 2047 4138 1716 4138 
Q 1388 4138 1169 3931 
Q 950 3725 888 3313 
L 325 3413 
Q 428 3978 793 4289 
Q 1159 4600 1703 4600 
Q 2078 4600 2393 4439 
Q 2709 4278 2876 4000 
Q 3044 3722 3044 3409 
Q 3044 3113 2884 2869 
Q 2725 2625 2413 2481 
Q 2819 2388 3044 2092 
Q 3269 1797 3269 1353 
Q 3269 753 2831 336 
Q 2394 -81 1725 -81 
Q 1122 -81 723 278 
Q 325 638 269 1209 
z
" transform="scale(0.015625)"/>
       </defs>
       <use xlink:href="#ArialMT-33"/>
       <use xlink:href="#ArialMT-30" transform="translate(55.615234 0)"/>
      </g>
     </g>
    </g>
    <g id="xtick_4">
     <g id="line2d_4">
      <path d="M 301.972235 527.978062 
L 301.972235 30.447563 
" clip-path="url(#p42679bec7f)" style="fill: none; stroke-dasharray: 3.7,1.6; stroke-dashoffset: 0; stroke: #cccccc; stroke-opacity: 0.7"/>
     </g>
     <g id="text_4">
      <!-- 40 -->
      <g style="fill: #262626" transform="translate(296.411298 544.635875) scale(0.1 -0.1)">
       <defs>
        <path id="ArialMT-34" d="M 2069 0 
L 2069 1097 
L 81 1097 
L 81 1613 
L 2172 4581 
L 2631 4581 
L 2631 1613 
L 3250 1613 
L 3250 1097 
L 2631 1097 
L 2631 0 
L 2069 0 
z
M 2069 1613 
L 2069 3678 
L 634 1613 
L 2069 1613 
z
" transform="scale(0.015625)"/>
       </defs>
       <use xlink:href="#ArialMT-34"/>
       <use xlink:href="#ArialMT-30" transform="translate(55.615234 0)"/>
      </g>
     </g>
    </g>
    <g id="xtick_5">
     <g id="line2d_5">
      <path d="M 362.808714 527.978062 
L 362.808714 30.447563 
" clip-path="url(#p42679bec7f)" style="fill: none; stroke-dasharray: 3.7,1.6; stroke-dashoffset: 0; stroke: #cccccc; stroke-opacity: 0.7"/>
     </g>
     <g id="text_5">
      <!-- 50 -->
      <g style="fill: #262626" transform="translate(357.247777 544.635875) scale(0.1 -0.1)">
       <defs>
        <path id="ArialMT-35" d="M 266 1200 
L 856 1250 
Q 922 819 1161 601 
Q 1400 384 1738 384 
Q 2144 384 2425 690 
Q 2706 997 2706 1503 
Q 2706 1984 2436 2262 
Q 2166 2541 1728 2541 
Q 1456 2541 1237 2417 
Q 1019 2294 894 2097 
L 366 2166 
L 809 4519 
L 3088 4519 
L 3088 3981 
L 1259 3981 
L 1013 2750 
Q 1425 3038 1878 3038 
Q 2478 3038 2890 2622 
Q 3303 2206 3303 1553 
Q 3303 931 2941 478 
Q 2500 -78 1738 -78 
Q 1113 -78 717 272 
Q 322 622 266 1200 
z
" transform="scale(0.015625)"/>
       </defs>
       <use xlink:href="#ArialMT-35"/>
       <use xlink:href="#ArialMT-30" transform="translate(55.615234 0)"/>
      </g>
     </g>
    </g>
    <g id="xtick_6">
     <g id="line2d_6">
      <path d="M 423.645193 527.978062 
L 423.645193 30.447563 
" clip-path="url(#p42679bec7f)" style="fill: none; stroke-dasharray: 3.7,1.6; stroke-dashoffset: 0; stroke: #cccccc; stroke-opacity: 0.7"/>
     </g>
     <g id="text_6">
      <!-- 60 -->
      <g style="fill: #262626" transform="translate(418.084256 544.635875) scale(0.1 -0.1)">
       <defs>
        <path id="ArialMT-36" d="M 3184 3459 
L 2625 3416 
Q 2550 3747 2413 3897 
Q 2184 4138 1850 4138 
Q 1581 4138 1378 3988 
Q 1113 3794 959 3422 
Q 806 3050 800 2363 
Q 1003 2672 1297 2822 
Q 1591 2972 1913 2972 
Q 2475 2972 2870 2558 
Q 3266 2144 3266 1488 
Q 3266 1056 3080 686 
Q 2894 316 2569 119 
Q 2244 -78 1831 -78 
Q 1128 -78 684 439 
Q 241 956 241 2144 
Q 241 3472 731 4075 
Q 1159 4600 1884 4600 
Q 2425 4600 2770 4297 
Q 3116 3994 3184 3459 
z
M 888 1484 
Q 888 1194 1011 928 
Q 1134 663 1356 523 
Q 1578 384 1822 384 
Q 2178 384 2434 671 
Q 2691 959 2691 1453 
Q 2691 1928 2437 2201 
Q 2184 2475 1800 2475 
Q 1419 2475 1153 2201 
Q 888 1928 888 1484 
z
" transform="scale(0.015625)"/>
       </defs>
       <use xlink:href="#ArialMT-36"/>
       <use xlink:href="#ArialMT-30" transform="translate(55.615234 0)"/>
      </g>
     </g>
    </g>
    <g id="xtick_7">
     <g id="line2d_7">
      <path d="M 484.481672 527.978062 
L 484.481672 30.447563 
" clip-path="url(#p42679bec7f)" style="fill: none; stroke-dasharray: 3.7,1.6; stroke-dashoffset: 0; stroke: #cccccc; stroke-opacity: 0.7"/>
     </g>
     <g id="text_7">
      <!-- 70 -->
      <g style="fill: #262626" transform="translate(478.920734 544.635875) scale(0.1 -0.1)">
       <defs>
        <path id="ArialMT-37" d="M 303 3981 
L 303 4522 
L 3269 4522 
L 3269 4084 
Q 2831 3619 2401 2847 
Q 1972 2075 1738 1259 
Q 1569 684 1522 0 
L 944 0 
Q 953 541 1156 1306 
Q 1359 2072 1739 2783 
Q 2119 3494 2547 3981 
L 303 3981 
z
" transform="scale(0.015625)"/>
       </defs>
       <use xlink:href="#ArialMT-37"/>
       <use xlink:href="#ArialMT-30" transform="translate(55.615234 0)"/>
      </g>
     </g>
    </g>
    <g id="xtick_8">
     <g id="line2d_8">
      <path d="M 545.318151 527.978062 
L 545.318151 30.447563 
" clip-path="url(#p42679bec7f)" style="fill: none; stroke-dasharray: 3.7,1.6; stroke-dashoffset: 0; stroke: #cccccc; stroke-opacity: 0.7"/>
     </g>
     <g id="text_8">
      <!-- 80 -->
      <g style="fill: #262626" transform="translate(539.757213 544.635875) scale(0.1 -0.1)">
       <defs>
        <path id="ArialMT-38" d="M 1131 2484 
Q 781 2613 612 2850 
Q 444 3088 444 3419 
Q 444 3919 803 4259 
Q 1163 4600 1759 4600 
Q 2359 4600 2725 4251 
Q 3091 3903 3091 3403 
Q 3091 3084 2923 2848 
Q 2756 2613 2416 2484 
Q 2838 2347 3058 2040 
Q 3278 1734 3278 1309 
Q 3278 722 2862 322 
Q 2447 -78 1769 -78 
Q 1091 -78 675 323 
Q 259 725 259 1325 
Q 259 1772 486 2073 
Q 713 2375 1131 2484 
z
M 1019 3438 
Q 1019 3113 1228 2906 
Q 1438 2700 1772 2700 
Q 2097 2700 2305 2904 
Q 2513 3109 2513 3406 
Q 2513 3716 2298 3927 
Q 2084 4138 1766 4138 
Q 1444 4138 1231 3931 
Q 1019 3725 1019 3438 
z
M 838 1322 
Q 838 1081 952 856 
Q 1066 631 1291 507 
Q 1516 384 1775 384 
Q 2178 384 2440 643 
Q 2703 903 2703 1303 
Q 2703 1709 2433 1975 
Q 2163 2241 1756 2241 
Q 1359 2241 1098 1978 
Q 838 1716 838 1322 
z
" transform="scale(0.015625)"/>
       </defs>
       <use xlink:href="#ArialMT-38"/>
       <use xlink:href="#ArialMT-30" transform="translate(55.615234 0)"/>
      </g>
     </g>
    </g>
    <g id="text_9">
     <!-- Units_Sold -->
     <g style="fill: #262626" transform="translate(285.124844 559.359) scale(0.12 -0.12)">
      <defs>
       <path id="ArialMT-55" d="M 3500 4581 
L 4106 4581 
L 4106 1934 
Q 4106 1244 3950 837 
Q 3794 431 3386 176 
Q 2978 -78 2316 -78 
Q 1672 -78 1262 144 
Q 853 366 678 786 
Q 503 1206 503 1934 
L 503 4581 
L 1109 4581 
L 1109 1938 
Q 1109 1341 1220 1058 
Q 1331 775 1601 622 
Q 1872 469 2263 469 
Q 2931 469 3215 772 
Q 3500 1075 3500 1938 
L 3500 4581 
z
" transform="scale(0.015625)"/>
       <path id="ArialMT-6e" d="M 422 0 
L 422 3319 
L 928 3319 
L 928 2847 
Q 1294 3394 1984 3394 
Q 2284 3394 2536 3286 
Q 2788 3178 2913 3003 
Q 3038 2828 3088 2588 
Q 3119 2431 3119 2041 
L 3119 0 
L 2556 0 
L 2556 2019 
Q 2556 2363 2490 2533 
Q 2425 2703 2258 2804 
Q 2091 2906 1866 2906 
Q 1506 2906 1245 2678 
Q 984 2450 984 1813 
L 984 0 
L 422 0 
z
" transform="scale(0.015625)"/>
       <path id="ArialMT-69" d="M 425 3934 
L 425 4581 
L 988 4581 
L 988 3934 
L 425 3934 
z
M 425 0 
L 425 3319 
L 988 3319 
L 988 0 
L 425 0 
z
" transform="scale(0.015625)"/>
       <path id="ArialMT-74" d="M 1650 503 
L 1731 6 
Q 1494 -44 1306 -44 
Q 1000 -44 831 53 
Q 663 150 594 308 
Q 525 466 525 972 
L 525 2881 
L 113 2881 
L 113 3319 
L 525 3319 
L 525 4141 
L 1084 4478 
L 1084 3319 
L 1650 3319 
L 1650 2881 
L 1084 2881 
L 1084 941 
Q 1084 700 1114 631 
Q 1144 563 1211 522 
Q 1278 481 1403 481 
Q 1497 481 1650 503 
z
" transform="scale(0.015625)"/>
       <path id="ArialMT-73" d="M 197 991 
L 753 1078 
Q 800 744 1014 566 
Q 1228 388 1613 388 
Q 2000 388 2187 545 
Q 2375 703 2375 916 
Q 2375 1106 2209 1216 
Q 2094 1291 1634 1406 
Q 1016 1563 777 1677 
Q 538 1791 414 1992 
Q 291 2194 291 2438 
Q 291 2659 392 2848 
Q 494 3038 669 3163 
Q 800 3259 1026 3326 
Q 1253 3394 1513 3394 
Q 1903 3394 2198 3281 
Q 2494 3169 2634 2976 
Q 2775 2784 2828 2463 
L 2278 2388 
Q 2241 2644 2061 2787 
Q 1881 2931 1553 2931 
Q 1166 2931 1000 2803 
Q 834 2675 834 2503 
Q 834 2394 903 2306 
Q 972 2216 1119 2156 
Q 1203 2125 1616 2013 
Q 2213 1853 2448 1751 
Q 2684 1650 2818 1456 
Q 2953 1263 2953 975 
Q 2953 694 2789 445 
Q 2625 197 2315 61 
Q 2006 -75 1616 -75 
Q 969 -75 630 194 
Q 291 463 197 991 
z
" transform="scale(0.015625)"/>
       <path id="ArialMT-5f" d="M -97 -1272 
L -97 -866 
L 3631 -866 
L 3631 -1272 
L -97 -1272 
z
" transform="scale(0.015625)"/>
       <path id="ArialMT-53" d="M 288 1472 
L 859 1522 
Q 900 1178 1048 958 
Q 1197 738 1509 602 
Q 1822 466 2213 466 
Q 2559 466 2825 569 
Q 3091 672 3220 851 
Q 3350 1031 3350 1244 
Q 3350 1459 3225 1620 
Q 3100 1781 2813 1891 
Q 2628 1963 1997 2114 
Q 1366 2266 1113 2400 
Q 784 2572 623 2826 
Q 463 3081 463 3397 
Q 463 3744 659 4045 
Q 856 4347 1234 4503 
Q 1613 4659 2075 4659 
Q 2584 4659 2973 4495 
Q 3363 4331 3572 4012 
Q 3781 3694 3797 3291 
L 3216 3247 
Q 3169 3681 2898 3903 
Q 2628 4125 2100 4125 
Q 1550 4125 1298 3923 
Q 1047 3722 1047 3438 
Q 1047 3191 1225 3031 
Q 1400 2872 2139 2705 
Q 2878 2538 3153 2413 
Q 3553 2228 3743 1945 
Q 3934 1663 3934 1294 
Q 3934 928 3725 604 
Q 3516 281 3123 101 
Q 2731 -78 2241 -78 
Q 1619 -78 1198 103 
Q 778 284 539 648 
Q 300 1013 288 1472 
z
" transform="scale(0.015625)"/>
       <path id="ArialMT-6f" d="M 213 1659 
Q 213 2581 725 3025 
Q 1153 3394 1769 3394 
Q 2453 3394 2887 2945 
Q 3322 2497 3322 1706 
Q 3322 1066 3130 698 
Q 2938 331 2570 128 
Q 2203 -75 1769 -75 
Q 1072 -75 642 372 
Q 213 819 213 1659 
z
M 791 1659 
Q 791 1022 1069 705 
Q 1347 388 1769 388 
Q 2188 388 2466 706 
Q 2744 1025 2744 1678 
Q 2744 2294 2464 2611 
Q 2184 2928 1769 2928 
Q 1347 2928 1069 2612 
Q 791 2297 791 1659 
z
" transform="scale(0.015625)"/>
       <path id="ArialMT-6c" d="M 409 0 
L 409 4581 
L 972 4581 
L 972 0 
L 409 0 
z
" transform="scale(0.015625)"/>
       <path id="ArialMT-64" d="M 2575 0 
L 2575 419 
Q 2259 -75 1647 -75 
Q 1250 -75 917 144 
Q 584 363 401 755 
Q 219 1147 219 1656 
Q 219 2153 384 2558 
Q 550 2963 881 3178 
Q 1213 3394 1622 3394 
Q 1922 3394 2156 3267 
Q 2391 3141 2538 2938 
L 2538 4581 
L 3097 4581 
L 3097 0 
L 2575 0 
z
M 797 1656 
Q 797 1019 1065 703 
Q 1334 388 1700 388 
Q 2069 388 2326 689 
Q 2584 991 2584 1609 
Q 2584 2291 2321 2609 
Q 2059 2928 1675 2928 
Q 1300 2928 1048 2622 
Q 797 2316 797 1656 
z
" transform="scale(0.015625)"/>
      </defs>
      <use xlink:href="#ArialMT-55"/>
      <use xlink:href="#ArialMT-6e" transform="translate(72.216797 0)"/>
      <use xlink:href="#ArialMT-69" transform="translate(127.832031 0)"/>
      <use xlink:href="#ArialMT-74" transform="translate(150.048828 0)"/>
      <use xlink:href="#ArialMT-73" transform="translate(177.832031 0)"/>
      <use xlink:href="#ArialMT-5f" transform="translate(227.832031 0)"/>
      <use xlink:href="#ArialMT-53" transform="translate(283.447266 0)"/>
      <use xlink:href="#ArialMT-6f" transform="translate(350.146484 0)"/>
      <use xlink:href="#ArialMT-6c" transform="translate(405.761719 0)"/>
      <use xlink:href="#ArialMT-64" transform="translate(427.978516 0)"/>
     </g>
    </g>
   </g>
   <g id="matplotlib.axis_2">
    <g id="ytick_1">
     <g id="line2d_9">
      <path d="M 66.535063 510.892385 
L 561.744 510.892385 
" clip-path="url(#p42679bec7f)" style="fill: none; stroke-dasharray: 3.7,1.6; stroke-dashoffset: 0; stroke: #cccccc; stroke-opacity: 0.7"/>
     </g>
     <g id="text_10">
      <!-- 0 -->
      <g style="fill: #262626" transform="translate(51.474125 514.471291) scale(0.1 -0.1)">
       <use xlink:href="#ArialMT-30"/>
      </g>
     </g>
    </g>
    <g id="ytick_2">
     <g id="line2d_10">
      <path d="M 66.535063 402.473848 
L 561.744 402.473848 
" clip-path="url(#p42679bec7f)" style="fill: none; stroke-dasharray: 3.7,1.6; stroke-dashoffset: 0; stroke: #cccccc; stroke-opacity: 0.7"/>
     </g>
     <g id="text_11">
      <!-- 20000 -->
      <g style="fill: #262626" transform="translate(29.230375 406.052754) scale(0.1 -0.1)">
       <use xlink:href="#ArialMT-32"/>
       <use xlink:href="#ArialMT-30" transform="translate(55.615234 0)"/>
       <use xlink:href="#ArialMT-30" transform="translate(111.230469 0)"/>
       <use xlink:href="#ArialMT-30" transform="translate(166.845703 0)"/>
       <use xlink:href="#ArialMT-30" transform="translate(222.460938 0)"/>
      </g>
     </g>
    </g>
    <g id="ytick_3">
     <g id="line2d_11">
      <path d="M 66.535063 294.05531 
L 561.744 294.05531 
" clip-path="url(#p42679bec7f)" style="fill: none; stroke-dasharray: 3.7,1.6; stroke-dashoffset: 0; stroke: #cccccc; stroke-opacity: 0.7"/>
     </g>
     <g id="text_12">
      <!-- 40000 -->
      <g style="fill: #262626" transform="translate(29.230375 297.634217) scale(0.1 -0.1)">
       <use xlink:href="#ArialMT-34"/>
       <use xlink:href="#ArialMT-30" transform="translate(55.615234 0)"/>
       <use xlink:href="#ArialMT-30" transform="translate(111.230469 0)"/>
       <use xlink:href="#ArialMT-30" transform="translate(166.845703 0)"/>
       <use xlink:href="#ArialMT-30" transform="translate(222.460938 0)"/>
      </g>
     </g>
    </g>
    <g id="ytick_4">
     <g id="line2d_12">
      <path d="M 66.535063 185.636773 
L 561.744 185.636773 
" clip-path="url(#p42679bec7f)" style="fill: none; stroke-dasharray: 3.7,1.6; stroke-dashoffset: 0; stroke: #cccccc; stroke-opacity: 0.7"/>
     </g>
     <g id="text_13">
      <!-- 60000 -->
      <g style="fill: #262626" transform="translate(29.230375 189.215679) scale(0.1 -0.1)">
       <use xlink:href="#ArialMT-36"/>
       <use xlink:href="#ArialMT-30" transform="translate(55.615234 0)"/>
       <use xlink:href="#ArialMT-30" transform="translate(111.230469 0)"/>
       <use xlink:href="#ArialMT-30" transform="translate(166.845703 0)"/>
       <use xlink:href="#ArialMT-30" transform="translate(222.460938 0)"/>
      </g>
     </g>
    </g>
    <g id="ytick_5">
     <g id="line2d_13">
      <path d="M 66.535063 77.218235 
L 561.744 77.218235 
" clip-path="url(#p42679bec7f)" style="fill: none; stroke-dasharray: 3.7,1.6; stroke-dashoffset: 0; stroke: #cccccc; stroke-opacity: 0.7"/>
     </g>
     <g id="text_14">
      <!-- 80000 -->
      <g style="fill: #262626" transform="translate(29.230375 80.797142) scale(0.1 -0.1)">
       <use xlink:href="#ArialMT-38"/>
       <use xlink:href="#ArialMT-30" transform="translate(55.615234 0)"/>
       <use xlink:href="#ArialMT-30" transform="translate(111.230469 0)"/>
       <use xlink:href="#ArialMT-30" transform="translate(166.845703 0)"/>
       <use xlink:href="#ArialMT-30" transform="translate(222.460938 0)"/>
      </g>
     </g>
    </g>
    <g id="text_15">
     <!-- Revenue -->
     <g style="fill: #262626" transform="translate(22.845375 303.22875) rotate(-90) scale(0.12 -0.12)">
      <defs>
       <path id="ArialMT-52" d="M 503 0 
L 503 4581 
L 2534 4581 
Q 3147 4581 3465 4457 
Q 3784 4334 3975 4021 
Q 4166 3709 4166 3331 
Q 4166 2844 3850 2509 
Q 3534 2175 2875 2084 
Q 3116 1969 3241 1856 
Q 3506 1613 3744 1247 
L 4541 0 
L 3778 0 
L 3172 953 
Q 2906 1366 2734 1584 
Q 2563 1803 2427 1890 
Q 2291 1978 2150 2013 
Q 2047 2034 1813 2034 
L 1109 2034 
L 1109 0 
L 503 0 
z
M 1109 2559 
L 2413 2559 
Q 2828 2559 3062 2645 
Q 3297 2731 3419 2920 
Q 3541 3109 3541 3331 
Q 3541 3656 3305 3865 
Q 3069 4075 2559 4075 
L 1109 4075 
L 1109 2559 
z
" transform="scale(0.015625)"/>
       <path id="ArialMT-65" d="M 2694 1069 
L 3275 997 
Q 3138 488 2766 206 
Q 2394 -75 1816 -75 
Q 1088 -75 661 373 
Q 234 822 234 1631 
Q 234 2469 665 2931 
Q 1097 3394 1784 3394 
Q 2450 3394 2872 2941 
Q 3294 2488 3294 1666 
Q 3294 1616 3291 1516 
L 816 1516 
Q 847 969 1125 678 
Q 1403 388 1819 388 
Q 2128 388 2347 550 
Q 2566 713 2694 1069 
z
M 847 1978 
L 2700 1978 
Q 2663 2397 2488 2606 
Q 2219 2931 1791 2931 
Q 1403 2931 1139 2672 
Q 875 2413 847 1978 
z
" transform="scale(0.015625)"/>
       <path id="ArialMT-76" d="M 1344 0 
L 81 3319 
L 675 3319 
L 1388 1331 
Q 1503 1009 1600 663 
Q 1675 925 1809 1294 
L 2547 3319 
L 3125 3319 
L 1869 0 
L 1344 0 
z
" transform="scale(0.015625)"/>
       <path id="ArialMT-75" d="M 2597 0 
L 2597 488 
Q 2209 -75 1544 -75 
Q 1250 -75 995 37 
Q 741 150 617 320 
Q 494 491 444 738 
Q 409 903 409 1263 
L 409 3319 
L 972 3319 
L 972 1478 
Q 972 1038 1006 884 
Q 1059 663 1231 536 
Q 1403 409 1656 409 
Q 1909 409 2131 539 
Q 2353 669 2445 892 
Q 2538 1116 2538 1541 
L 2538 3319 
L 3100 3319 
L 3100 0 
L 2597 0 
z
" transform="scale(0.015625)"/>
      </defs>
      <use xlink:href="#ArialMT-52"/>
      <use xlink:href="#ArialMT-65" transform="translate(72.216797 0)"/>
      <use xlink:href="#ArialMT-76" transform="translate(127.832031 0)"/>
      <use xlink:href="#ArialMT-65" transform="translate(177.832031 0)"/>
      <use xlink:href="#ArialMT-6e" transform="translate(233.447266 0)"/>
      <use xlink:href="#ArialMT-75" transform="translate(289.0625 0)"/>
      <use xlink:href="#ArialMT-65" transform="translate(344.677734 0)"/>
     </g>
    </g>
   </g>
   <g id="PathCollection_1">
    <defs>
     <path id="ma786d46677" d="M 0 3 
C 0.795609 3 1.55874 2.683901 2.12132 2.12132 
C 2.683901 1.55874 3 0.795609 3 0 
C 3 -0.795609 2.683901 -1.55874 2.12132 -2.12132 
C 1.55874 -2.683901 0.795609 -3 0 -3 
C -0.795609 -3 -1.55874 -2.683901 -2.12132 -2.12132 
C -2.683901 -1.55874 -3 -0.795609 -3 0 
C -3 0.795609 -2.683901 1.55874 -2.12132 2.12132 
C -1.55874 2.683901 -0.795609 3 0 3 
z
" style="stroke: #0173b2; stroke-opacity: 0.6; stroke-width: 0.48"/>
    </defs>
    <g clip-path="url(#p42679bec7f)">
     <use xlink:href="#ma786d46677" x="289.80494" y="291.095484" style="fill: #0173b2; fill-opacity: 0.6; stroke: #0173b2; stroke-opacity: 0.6; stroke-width: 0.48"/>
     <use xlink:href="#ma786d46677" x="326.306827" y="271.65604" style="fill: #0173b2; fill-opacity: 0.6; stroke: #0173b2; stroke-opacity: 0.6; stroke-width: 0.48"/>
     <use xlink:href="#ma786d46677" x="496.648968" y="383.65239" style="fill: #0173b2; fill-opacity: 0.6; stroke: #0173b2; stroke-opacity: 0.6; stroke-width: 0.48"/>
     <use xlink:href="#ma786d46677" x="168.131982" y="400.533156" style="fill: #0173b2; fill-opacity: 0.6; stroke: #0173b2; stroke-opacity: 0.6; stroke-width: 0.48"/>
     <use xlink:href="#ma786d46677" x="314.139531" y="376.561817" style="fill: #0173b2; fill-opacity: 0.6; stroke: #0173b2; stroke-opacity: 0.6; stroke-width: 0.48"/>
     <use xlink:href="#ma786d46677" x="101.211855" y="503.758445" style="fill: #0173b2; fill-opacity: 0.6; stroke: #0173b2; stroke-opacity: 0.6; stroke-width: 0.48"/>
     <use xlink:href="#ma786d46677" x="143.797391" y="469.758392" style="fill: #0173b2; fill-opacity: 0.6; stroke: #0173b2; stroke-opacity: 0.6; stroke-width: 0.48"/>
     <use xlink:href="#ma786d46677" x="460.14708" y="452.216273" style="fill: #0173b2; fill-opacity: 0.6; stroke: #0173b2; stroke-opacity: 0.6; stroke-width: 0.48"/>
     <use xlink:href="#ma786d46677" x="168.131982" y="403.65561" style="fill: #0173b2; fill-opacity: 0.6; stroke: #0173b2; stroke-opacity: 0.6; stroke-width: 0.48"/>
     <use xlink:href="#ma786d46677" x="478.398024" y="315.641441" style="fill: #0173b2; fill-opacity: 0.6; stroke: #0173b2; stroke-opacity: 0.6; stroke-width: 0.48"/>
     <use xlink:href="#ma786d46677" x="447.979785" y="194.136786" style="fill: #0173b2; fill-opacity: 0.6; stroke: #0173b2; stroke-opacity: 0.6; stroke-width: 0.48"/>
     <use xlink:href="#ma786d46677" x="301.972235" y="424.157555" style="fill: #0173b2; fill-opacity: 0.6; stroke: #0173b2; stroke-opacity: 0.6; stroke-width: 0.48"/>
     <use xlink:href="#ma786d46677" x="241.135757" y="433.156294" style="fill: #0173b2; fill-opacity: 0.6; stroke: #0173b2; stroke-opacity: 0.6; stroke-width: 0.48"/>
     <use xlink:href="#ma786d46677" x="228.968461" y="414.508305" style="fill: #0173b2; fill-opacity: 0.6; stroke: #0173b2; stroke-opacity: 0.6; stroke-width: 0.48"/>
     <use xlink:href="#ma786d46677" x="399.310602" y="449.57086" style="fill: #0173b2; fill-opacity: 0.6; stroke: #0173b2; stroke-opacity: 0.6; stroke-width: 0.48"/>
     <use xlink:href="#ma786d46677" x="241.135757" y="412.990446" style="fill: #0173b2; fill-opacity: 0.6; stroke: #0173b2; stroke-opacity: 0.6; stroke-width: 0.48"/>
     <use xlink:href="#ma786d46677" x="387.143306" y="298.663098" style="fill: #0173b2; fill-opacity: 0.6; stroke: #0173b2; stroke-opacity: 0.6; stroke-width: 0.48"/>
     <use xlink:href="#ma786d46677" x="168.131982" y="495.865576" style="fill: #0173b2; fill-opacity: 0.6; stroke: #0173b2; stroke-opacity: 0.6; stroke-width: 0.48"/>
     <use xlink:href="#ma786d46677" x="502.732616" y="98.544162" style="fill: #0173b2; fill-opacity: 0.6; stroke: #0173b2; stroke-opacity: 0.6; stroke-width: 0.48"/>
     <use xlink:href="#ma786d46677" x="228.968461" y="367.151088" style="fill: #0173b2; fill-opacity: 0.6; stroke: #0173b2; stroke-opacity: 0.6; stroke-width: 0.48"/>
     <use xlink:href="#ma786d46677" x="95.128208" y="475.862356" style="fill: #0173b2; fill-opacity: 0.6; stroke: #0173b2; stroke-opacity: 0.6; stroke-width: 0.48"/>
     <use xlink:href="#ma786d46677" x="490.56532" y="445.461798" style="fill: #0173b2; fill-opacity: 0.6; stroke: #0173b2; stroke-opacity: 0.6; stroke-width: 0.48"/>
     <use xlink:href="#ma786d46677" x="253.303052" y="436.99431" style="fill: #0173b2; fill-opacity: 0.6; stroke: #0173b2; stroke-opacity: 0.6; stroke-width: 0.48"/>
     <use xlink:href="#ma786d46677" x="405.394249" y="202.208546" style="fill: #0173b2; fill-opacity: 0.6; stroke: #0173b2; stroke-opacity: 0.6; stroke-width: 0.48"/>
     <use xlink:href="#ma786d46677" x="198.550222" y="495.930627" style="fill: #0173b2; fill-opacity: 0.6; stroke: #0173b2; stroke-opacity: 0.6; stroke-width: 0.48"/>
     <use xlink:href="#ma786d46677" x="496.648968" y="53.062585" style="fill: #0173b2; fill-opacity: 0.6; stroke: #0173b2; stroke-opacity: 0.6; stroke-width: 0.48"/>
     <use xlink:href="#ma786d46677" x="520.983559" y="113.733599" style="fill: #0173b2; fill-opacity: 0.6; stroke: #0173b2; stroke-opacity: 0.6; stroke-width: 0.48"/>
     <use xlink:href="#ma786d46677" x="192.466574" y="384.595631" style="fill: #0173b2; fill-opacity: 0.6; stroke: #0173b2; stroke-opacity: 0.6; stroke-width: 0.48"/>
     <use xlink:href="#ma786d46677" x="533.150855" y="423.3661" style="fill: #0173b2; fill-opacity: 0.6; stroke: #0173b2; stroke-opacity: 0.6; stroke-width: 0.48"/>
     <use xlink:href="#ma786d46677" x="393.226954" y="231.226768" style="fill: #0173b2; fill-opacity: 0.6; stroke: #0173b2; stroke-opacity: 0.6; stroke-width: 0.48"/>
     <use xlink:href="#ma786d46677" x="466.230728" y="168.392804" style="fill: #0173b2; fill-opacity: 0.6; stroke: #0173b2; stroke-opacity: 0.6; stroke-width: 0.48"/>
     <use xlink:href="#ma786d46677" x="125.546447" y="498.370044" style="fill: #0173b2; fill-opacity: 0.6; stroke: #0173b2; stroke-opacity: 0.6; stroke-width: 0.48"/>
     <use xlink:href="#ma786d46677" x="89.04456" y="494.873546" style="fill: #0173b2; fill-opacity: 0.6; stroke: #0173b2; stroke-opacity: 0.6; stroke-width: 0.48"/>
     <use xlink:href="#ma786d46677" x="362.808714" y="237.948717" style="fill: #0173b2; fill-opacity: 0.6; stroke: #0173b2; stroke-opacity: 0.6; stroke-width: 0.48"/>
     <use xlink:href="#ma786d46677" x="527.067207" y="209.521377" style="fill: #0173b2; fill-opacity: 0.6; stroke: #0173b2; stroke-opacity: 0.6; stroke-width: 0.48"/>
     <use xlink:href="#ma786d46677" x="441.896137" y="316.226901" style="fill: #0173b2; fill-opacity: 0.6; stroke: #0173b2; stroke-opacity: 0.6; stroke-width: 0.48"/>
     <use xlink:href="#ma786d46677" x="514.899911" y="443.401846" style="fill: #0173b2; fill-opacity: 0.6; stroke: #0173b2; stroke-opacity: 0.6; stroke-width: 0.48"/>
     <use xlink:href="#ma786d46677" x="441.896137" y="212.40531" style="fill: #0173b2; fill-opacity: 0.6; stroke: #0173b2; stroke-opacity: 0.6; stroke-width: 0.48"/>
     <use xlink:href="#ma786d46677" x="113.379151" y="490.694012" style="fill: #0173b2; fill-opacity: 0.6; stroke: #0173b2; stroke-opacity: 0.6; stroke-width: 0.48"/>
     <use xlink:href="#ma786d46677" x="89.04456" y="488.937631" style="fill: #0173b2; fill-opacity: 0.6; stroke: #0173b2; stroke-opacity: 0.6; stroke-width: 0.48"/>
     <use xlink:href="#ma786d46677" x="490.56532" y="287.658617" style="fill: #0173b2; fill-opacity: 0.6; stroke: #0173b2; stroke-opacity: 0.6; stroke-width: 0.48"/>
     <use xlink:href="#ma786d46677" x="332.390475" y="428.440087" style="fill: #0173b2; fill-opacity: 0.6; stroke: #0173b2; stroke-opacity: 0.6; stroke-width: 0.48"/>
     <use xlink:href="#ma786d46677" x="235.052109" y="469.86139" style="fill: #0173b2; fill-opacity: 0.6; stroke: #0173b2; stroke-opacity: 0.6; stroke-width: 0.48"/>
     <use xlink:href="#ma786d46677" x="417.561545" y="362.169256" style="fill: #0173b2; fill-opacity: 0.6; stroke: #0173b2; stroke-opacity: 0.6; stroke-width: 0.48"/>
     <use xlink:href="#ma786d46677" x="447.979785" y="145.912221" style="fill: #0173b2; fill-opacity: 0.6; stroke: #0173b2; stroke-opacity: 0.6; stroke-width: 0.48"/>
     <use xlink:href="#ma786d46677" x="387.143306" y="175.716477" style="fill: #0173b2; fill-opacity: 0.6; stroke: #0173b2; stroke-opacity: 0.6; stroke-width: 0.48"/>
     <use xlink:href="#ma786d46677" x="338.474123" y="409.401792" style="fill: #0173b2; fill-opacity: 0.6; stroke: #0173b2; stroke-opacity: 0.6; stroke-width: 0.48"/>
     <use xlink:href="#ma786d46677" x="326.306827" y="482.746933" style="fill: #0173b2; fill-opacity: 0.6; stroke: #0173b2; stroke-opacity: 0.6; stroke-width: 0.48"/>
     <use xlink:href="#ma786d46677" x="484.481672" y="480.15573" style="fill: #0173b2; fill-opacity: 0.6; stroke: #0173b2; stroke-opacity: 0.6; stroke-width: 0.48"/>
     <use xlink:href="#ma786d46677" x="101.211855" y="486.075382" style="fill: #0173b2; fill-opacity: 0.6; stroke: #0173b2; stroke-opacity: 0.6; stroke-width: 0.48"/>
     <use xlink:href="#ma786d46677" x="216.801165" y="374.035665" style="fill: #0173b2; fill-opacity: 0.6; stroke: #0173b2; stroke-opacity: 0.6; stroke-width: 0.48"/>
     <use xlink:href="#ma786d46677" x="478.398024" y="391.19832" style="fill: #0173b2; fill-opacity: 0.6; stroke: #0173b2; stroke-opacity: 0.6; stroke-width: 0.48"/>
     <use xlink:href="#ma786d46677" x="533.150855" y="74.529456" style="fill: #0173b2; fill-opacity: 0.6; stroke: #0173b2; stroke-opacity: 0.6; stroke-width: 0.48"/>
     <use xlink:href="#ma786d46677" x="235.052109" y="405.092155" style="fill: #0173b2; fill-opacity: 0.6; stroke: #0173b2; stroke-opacity: 0.6; stroke-width: 0.48"/>
     <use xlink:href="#ma786d46677" x="539.234503" y="304.474332" style="fill: #0173b2; fill-opacity: 0.6; stroke: #0173b2; stroke-opacity: 0.6; stroke-width: 0.48"/>
     <use xlink:href="#ma786d46677" x="241.135757" y="442.263451" style="fill: #0173b2; fill-opacity: 0.6; stroke: #0173b2; stroke-opacity: 0.6; stroke-width: 0.48"/>
     <use xlink:href="#ma786d46677" x="283.721292" y="406.794326" style="fill: #0173b2; fill-opacity: 0.6; stroke: #0173b2; stroke-opacity: 0.6; stroke-width: 0.48"/>
     <use xlink:href="#ma786d46677" x="247.219405" y="378.638032" style="fill: #0173b2; fill-opacity: 0.6; stroke: #0173b2; stroke-opacity: 0.6; stroke-width: 0.48"/>
     <use xlink:href="#ma786d46677" x="228.968461" y="380.356466" style="fill: #0173b2; fill-opacity: 0.6; stroke: #0173b2; stroke-opacity: 0.6; stroke-width: 0.48"/>
     <use xlink:href="#ma786d46677" x="125.546447" y="453.707028" style="fill: #0173b2; fill-opacity: 0.6; stroke: #0173b2; stroke-opacity: 0.6; stroke-width: 0.48"/>
     <use xlink:href="#ma786d46677" x="149.881038" y="433.888119" style="fill: #0173b2; fill-opacity: 0.6; stroke: #0173b2; stroke-opacity: 0.6; stroke-width: 0.48"/>
     <use xlink:href="#ma786d46677" x="247.219405" y="324.022194" style="fill: #0173b2; fill-opacity: 0.6; stroke: #0173b2; stroke-opacity: 0.6; stroke-width: 0.48"/>
     <use xlink:href="#ma786d46677" x="107.295503" y="483.527546" style="fill: #0173b2; fill-opacity: 0.6; stroke: #0173b2; stroke-opacity: 0.6; stroke-width: 0.48"/>
     <use xlink:href="#ma786d46677" x="149.881038" y="476.82186" style="fill: #0173b2; fill-opacity: 0.6; stroke: #0173b2; stroke-opacity: 0.6; stroke-width: 0.48"/>
     <use xlink:href="#ma786d46677" x="387.143306" y="486.888521" style="fill: #0173b2; fill-opacity: 0.6; stroke: #0173b2; stroke-opacity: 0.6; stroke-width: 0.48"/>
     <use xlink:href="#ma786d46677" x="89.04456" y="489.479724" style="fill: #0173b2; fill-opacity: 0.6; stroke: #0173b2; stroke-opacity: 0.6; stroke-width: 0.48"/>
     <use xlink:href="#ma786d46677" x="222.884813" y="377.992942" style="fill: #0173b2; fill-opacity: 0.6; stroke: #0173b2; stroke-opacity: 0.6; stroke-width: 0.48"/>
     <use xlink:href="#ma786d46677" x="180.299278" y="446.708611" style="fill: #0173b2; fill-opacity: 0.6; stroke: #0173b2; stroke-opacity: 0.6; stroke-width: 0.48"/>
     <use xlink:href="#ma786d46677" x="235.052109" y="382.139951" style="fill: #0173b2; fill-opacity: 0.6; stroke: #0173b2; stroke-opacity: 0.6; stroke-width: 0.48"/>
     <use xlink:href="#ma786d46677" x="259.3867" y="432.001636" style="fill: #0173b2; fill-opacity: 0.6; stroke: #0173b2; stroke-opacity: 0.6; stroke-width: 0.48"/>
     <use xlink:href="#ma786d46677" x="277.637644" y="326.2773" style="fill: #0173b2; fill-opacity: 0.6; stroke: #0173b2; stroke-opacity: 0.6; stroke-width: 0.48"/>
     <use xlink:href="#ma786d46677" x="198.550222" y="400.798781" style="fill: #0173b2; fill-opacity: 0.6; stroke: #0173b2; stroke-opacity: 0.6; stroke-width: 0.48"/>
     <use xlink:href="#ma786d46677" x="265.470348" y="336.902316" style="fill: #0173b2; fill-opacity: 0.6; stroke: #0173b2; stroke-opacity: 0.6; stroke-width: 0.48"/>
     <use xlink:href="#ma786d46677" x="502.732616" y="93.399702" style="fill: #0173b2; fill-opacity: 0.6; stroke: #0173b2; stroke-opacity: 0.6; stroke-width: 0.48"/>
     <use xlink:href="#ma786d46677" x="393.226954" y="317.988702" style="fill: #0173b2; fill-opacity: 0.6; stroke: #0173b2; stroke-opacity: 0.6; stroke-width: 0.48"/>
     <use xlink:href="#ma786d46677" x="399.310602" y="297.784908" style="fill: #0173b2; fill-opacity: 0.6; stroke: #0173b2; stroke-opacity: 0.6; stroke-width: 0.48"/>
     <use xlink:href="#ma786d46677" x="350.641419" y="401.346295" style="fill: #0173b2; fill-opacity: 0.6; stroke: #0173b2; stroke-opacity: 0.6; stroke-width: 0.48"/>
     <use xlink:href="#ma786d46677" x="308.055883" y="344.421142" style="fill: #0173b2; fill-opacity: 0.6; stroke: #0173b2; stroke-opacity: 0.6; stroke-width: 0.48"/>
     <use xlink:href="#ma786d46677" x="314.139531" y="402.061857" style="fill: #0173b2; fill-opacity: 0.6; stroke: #0173b2; stroke-opacity: 0.6; stroke-width: 0.48"/>
     <use xlink:href="#ma786d46677" x="374.97601" y="426.607814" style="fill: #0173b2; fill-opacity: 0.6; stroke: #0173b2; stroke-opacity: 0.6; stroke-width: 0.48"/>
     <use xlink:href="#ma786d46677" x="447.979785" y="476.198453" style="fill: #0173b2; fill-opacity: 0.6; stroke: #0173b2; stroke-opacity: 0.6; stroke-width: 0.48"/>
     <use xlink:href="#ma786d46677" x="149.881038" y="470.723317" style="fill: #0173b2; fill-opacity: 0.6; stroke: #0173b2; stroke-opacity: 0.6; stroke-width: 0.48"/>
     <use xlink:href="#ma786d46677" x="423.645193" y="298.50047" style="fill: #0173b2; fill-opacity: 0.6; stroke: #0173b2; stroke-opacity: 0.6; stroke-width: 0.48"/>
     <use xlink:href="#ma786d46677" x="289.80494" y="354.130022" style="fill: #0173b2; fill-opacity: 0.6; stroke: #0173b2; stroke-opacity: 0.6; stroke-width: 0.48"/>
     <use xlink:href="#ma786d46677" x="192.466574" y="380.421517" style="fill: #0173b2; fill-opacity: 0.6; stroke: #0173b2; stroke-opacity: 0.6; stroke-width: 0.48"/>
     <use xlink:href="#ma786d46677" x="478.398024" y="142.085046" style="fill: #0173b2; fill-opacity: 0.6; stroke: #0173b2; stroke-opacity: 0.6; stroke-width: 0.48"/>
     <use xlink:href="#ma786d46677" x="374.97601" y="482.703565" style="fill: #0173b2; fill-opacity: 0.6; stroke: #0173b2; stroke-opacity: 0.6; stroke-width: 0.48"/>
     <use xlink:href="#ma786d46677" x="295.888588" y="463.112336" style="fill: #0173b2; fill-opacity: 0.6; stroke: #0173b2; stroke-opacity: 0.6; stroke-width: 0.48"/>
     <use xlink:href="#ma786d46677" x="472.314376" y="202.723534" style="fill: #0173b2; fill-opacity: 0.6; stroke: #0173b2; stroke-opacity: 0.6; stroke-width: 0.48"/>
     <use xlink:href="#ma786d46677" x="149.881038" y="466.251052" style="fill: #0173b2; fill-opacity: 0.6; stroke: #0173b2; stroke-opacity: 0.6; stroke-width: 0.48"/>
     <use xlink:href="#ma786d46677" x="356.725066" y="438.907897" style="fill: #0173b2; fill-opacity: 0.6; stroke: #0173b2; stroke-opacity: 0.6; stroke-width: 0.48"/>
     <use xlink:href="#ma786d46677" x="277.637644" y="378.578402" style="fill: #0173b2; fill-opacity: 0.6; stroke: #0173b2; stroke-opacity: 0.6; stroke-width: 0.48"/>
     <use xlink:href="#ma786d46677" x="265.470348" y="292.483241" style="fill: #0173b2; fill-opacity: 0.6; stroke: #0173b2; stroke-opacity: 0.6; stroke-width: 0.48"/>
     <use xlink:href="#ma786d46677" x="429.728841" y="346.876822" style="fill: #0173b2; fill-opacity: 0.6; stroke: #0173b2; stroke-opacity: 0.6; stroke-width: 0.48"/>
     <use xlink:href="#ma786d46677" x="356.725066" y="470.782947" style="fill: #0173b2; fill-opacity: 0.6; stroke: #0173b2; stroke-opacity: 0.6; stroke-width: 0.48"/>
     <use xlink:href="#ma786d46677" x="168.131982" y="457.517939" style="fill: #0173b2; fill-opacity: 0.6; stroke: #0173b2; stroke-opacity: 0.6; stroke-width: 0.48"/>
     <use xlink:href="#ma786d46677" x="222.884813" y="444.149934" style="fill: #0173b2; fill-opacity: 0.6; stroke: #0173b2; stroke-opacity: 0.6; stroke-width: 0.48"/>
     <use xlink:href="#ma786d46677" x="484.481672" y="332.923356" style="fill: #0173b2; fill-opacity: 0.6; stroke: #0173b2; stroke-opacity: 0.6; stroke-width: 0.48"/>
     <use xlink:href="#ma786d46677" x="447.979785" y="195.871483" style="fill: #0173b2; fill-opacity: 0.6; stroke: #0173b2; stroke-opacity: 0.6; stroke-width: 0.48"/>
     <use xlink:href="#ma786d46677" x="514.899911" y="389.3281" style="fill: #0173b2; fill-opacity: 0.6; stroke: #0173b2; stroke-opacity: 0.6; stroke-width: 0.48"/>
     <use xlink:href="#ma786d46677" x="356.725066" y="277.407644" style="fill: #0173b2; fill-opacity: 0.6; stroke: #0173b2; stroke-opacity: 0.6; stroke-width: 0.48"/>
     <use xlink:href="#ma786d46677" x="168.131982" y="415.950272" style="fill: #0173b2; fill-opacity: 0.6; stroke: #0173b2; stroke-opacity: 0.6; stroke-width: 0.48"/>
     <use xlink:href="#ma786d46677" x="204.633869" y="447.662694" style="fill: #0173b2; fill-opacity: 0.6; stroke: #0173b2; stroke-opacity: 0.6; stroke-width: 0.48"/>
     <use xlink:href="#ma786d46677" x="502.732616" y="433.725491" style="fill: #0173b2; fill-opacity: 0.6; stroke: #0173b2; stroke-opacity: 0.6; stroke-width: 0.48"/>
     <use xlink:href="#ma786d46677" x="174.21563" y="412.735662" style="fill: #0173b2; fill-opacity: 0.6; stroke: #0173b2; stroke-opacity: 0.6; stroke-width: 0.48"/>
     <use xlink:href="#ma786d46677" x="381.059658" y="296.272469" style="fill: #0173b2; fill-opacity: 0.6; stroke: #0173b2; stroke-opacity: 0.6; stroke-width: 0.48"/>
     <use xlink:href="#ma786d46677" x="168.131982" y="411.266591" style="fill: #0173b2; fill-opacity: 0.6; stroke: #0173b2; stroke-opacity: 0.6; stroke-width: 0.48"/>
     <use xlink:href="#ma786d46677" x="539.234503" y="262.505516" style="fill: #0173b2; fill-opacity: 0.6; stroke: #0173b2; stroke-opacity: 0.6; stroke-width: 0.48"/>
     <use xlink:href="#ma786d46677" x="101.211855" y="475.032954" style="fill: #0173b2; fill-opacity: 0.6; stroke: #0173b2; stroke-opacity: 0.6; stroke-width: 0.48"/>
     <use xlink:href="#ma786d46677" x="204.633869" y="465.486702" style="fill: #0173b2; fill-opacity: 0.6; stroke: #0173b2; stroke-opacity: 0.6; stroke-width: 0.48"/>
     <use xlink:href="#ma786d46677" x="417.561545" y="184.661006" style="fill: #0173b2; fill-opacity: 0.6; stroke: #0173b2; stroke-opacity: 0.6; stroke-width: 0.48"/>
     <use xlink:href="#ma786d46677" x="180.299278" y="465.898692" style="fill: #0173b2; fill-opacity: 0.6; stroke: #0173b2; stroke-opacity: 0.6; stroke-width: 0.48"/>
     <use xlink:href="#ma786d46677" x="514.899911" y="73.830156" style="fill: #0173b2; fill-opacity: 0.6; stroke: #0173b2; stroke-opacity: 0.6; stroke-width: 0.48"/>
     <use xlink:href="#ma786d46677" x="350.641419" y="253.029736" style="fill: #0173b2; fill-opacity: 0.6; stroke: #0173b2; stroke-opacity: 0.6; stroke-width: 0.48"/>
     <use xlink:href="#ma786d46677" x="368.892362" y="469.698762" style="fill: #0173b2; fill-opacity: 0.6; stroke: #0173b2; stroke-opacity: 0.6; stroke-width: 0.48"/>
     <use xlink:href="#ma786d46677" x="356.725066" y="256.423236" style="fill: #0173b2; fill-opacity: 0.6; stroke: #0173b2; stroke-opacity: 0.6; stroke-width: 0.48"/>
     <use xlink:href="#ma786d46677" x="332.390475" y="425.268845" style="fill: #0173b2; fill-opacity: 0.6; stroke: #0173b2; stroke-opacity: 0.6; stroke-width: 0.48"/>
     <use xlink:href="#ma786d46677" x="520.983559" y="295.009393" style="fill: #0173b2; fill-opacity: 0.6; stroke: #0173b2; stroke-opacity: 0.6; stroke-width: 0.48"/>
     <use xlink:href="#ma786d46677" x="89.04456" y="505.36304" style="fill: #0173b2; fill-opacity: 0.6; stroke: #0173b2; stroke-opacity: 0.6; stroke-width: 0.48"/>
     <use xlink:href="#ma786d46677" x="143.797391" y="441.070847" style="fill: #0173b2; fill-opacity: 0.6; stroke: #0173b2; stroke-opacity: 0.6; stroke-width: 0.48"/>
    </g>
   </g>
   <g id="patch_3">
    <path d="M 66.535063 527.978062 
L 66.535063 30.447563 
" style="fill: none; stroke: #cccccc; stroke-width: 1.25; stroke-linejoin: miter; stroke-linecap: square"/>
   </g>
   <g id="patch_4">
    <path d="M 561.744 527.978062 
L 561.744 30.447563 
" style="fill: none; stroke: #cccccc; stroke-width: 1.25; stroke-linejoin: miter; stroke-linecap: square"/>
   </g>
   <g id="patch_5">
    <path d="M 66.535063 527.978062 
L 561.744 527.978062 
" style="fill: none; stroke: #cccccc; stroke-width: 1.25; stroke-linejoin: miter; stroke-linecap: square"/>
   </g>
   <g id="patch_6">
    <path d="M 66.535063 30.447563 
L 561.744 30.447563 
" style="fill: none; stroke: #cccccc; stroke-width: 1.25; stroke-linejoin: miter; stroke-linecap: square"/>
   </g>
   <g id="text_16">
    <!-- Units_Sold vs Revenue -->
    <g style="fill: #262626" transform="translate(236.731562 24.447563) scale(0.14 -0.14)">
     <defs>
      <path id="Arial-BoldMT-55" d="M 459 4581 
L 1384 4581 
L 1384 2100 
Q 1384 1509 1419 1334 
Q 1478 1053 1701 883 
Q 1925 713 2313 713 
Q 2706 713 2906 873 
Q 3106 1034 3147 1268 
Q 3188 1503 3188 2047 
L 3188 4581 
L 4113 4581 
L 4113 2175 
Q 4113 1350 4038 1009 
Q 3963 669 3761 434 
Q 3559 200 3221 61 
Q 2884 -78 2341 -78 
Q 1684 -78 1345 73 
Q 1006 225 809 467 
Q 613 709 550 975 
Q 459 1369 459 2138 
L 459 4581 
z
" transform="scale(0.015625)"/>
      <path id="Arial-BoldMT-6e" d="M 3478 0 
L 2600 0 
L 2600 1694 
Q 2600 2231 2544 2389 
Q 2488 2547 2361 2634 
Q 2234 2722 2056 2722 
Q 1828 2722 1647 2597 
Q 1466 2472 1398 2265 
Q 1331 2059 1331 1503 
L 1331 0 
L 453 0 
L 453 3319 
L 1269 3319 
L 1269 2831 
Q 1703 3394 2363 3394 
Q 2653 3394 2893 3289 
Q 3134 3184 3257 3021 
Q 3381 2859 3429 2653 
Q 3478 2447 3478 2063 
L 3478 0 
z
" transform="scale(0.015625)"/>
      <path id="Arial-BoldMT-69" d="M 459 3769 
L 459 4581 
L 1338 4581 
L 1338 3769 
L 459 3769 
z
M 459 0 
L 459 3319 
L 1338 3319 
L 1338 0 
L 459 0 
z
" transform="scale(0.015625)"/>
      <path id="Arial-BoldMT-74" d="M 1981 3319 
L 1981 2619 
L 1381 2619 
L 1381 1281 
Q 1381 875 1398 808 
Q 1416 741 1477 697 
Q 1538 653 1625 653 
Q 1747 653 1978 738 
L 2053 56 
Q 1747 -75 1359 -75 
Q 1122 -75 931 4 
Q 741 84 652 211 
Q 563 338 528 553 
Q 500 706 500 1172 
L 500 2619 
L 97 2619 
L 97 3319 
L 500 3319 
L 500 3978 
L 1381 4491 
L 1381 3319 
L 1981 3319 
z
" transform="scale(0.015625)"/>
      <path id="Arial-BoldMT-73" d="M 150 947 
L 1031 1081 
Q 1088 825 1259 692 
Q 1431 559 1741 559 
Q 2081 559 2253 684 
Q 2369 772 2369 919 
Q 2369 1019 2306 1084 
Q 2241 1147 2013 1200 
Q 950 1434 666 1628 
Q 272 1897 272 2375 
Q 272 2806 612 3100 
Q 953 3394 1669 3394 
Q 2350 3394 2681 3172 
Q 3013 2950 3138 2516 
L 2309 2363 
Q 2256 2556 2107 2659 
Q 1959 2763 1684 2763 
Q 1338 2763 1188 2666 
Q 1088 2597 1088 2488 
Q 1088 2394 1175 2328 
Q 1294 2241 1995 2081 
Q 2697 1922 2975 1691 
Q 3250 1456 3250 1038 
Q 3250 581 2869 253 
Q 2488 -75 1741 -75 
Q 1063 -75 667 200 
Q 272 475 150 947 
z
" transform="scale(0.015625)"/>
      <path id="Arial-BoldMT-5f" d="M -59 -1266 
L -59 -697 
L 3591 -697 
L 3591 -1266 
L -59 -1266 
z
" transform="scale(0.015625)"/>
      <path id="Arial-BoldMT-53" d="M 231 1491 
L 1131 1578 
Q 1213 1125 1461 912 
Q 1709 700 2131 700 
Q 2578 700 2804 889 
Q 3031 1078 3031 1331 
Q 3031 1494 2936 1608 
Q 2841 1722 2603 1806 
Q 2441 1863 1863 2006 
Q 1119 2191 819 2459 
Q 397 2838 397 3381 
Q 397 3731 595 4036 
Q 794 4341 1167 4500 
Q 1541 4659 2069 4659 
Q 2931 4659 3367 4281 
Q 3803 3903 3825 3272 
L 2900 3231 
Q 2841 3584 2645 3739 
Q 2450 3894 2059 3894 
Q 1656 3894 1428 3728 
Q 1281 3622 1281 3444 
Q 1281 3281 1419 3166 
Q 1594 3019 2269 2859 
Q 2944 2700 3267 2529 
Q 3591 2359 3773 2064 
Q 3956 1769 3956 1334 
Q 3956 941 3737 597 
Q 3519 253 3119 86 
Q 2719 -81 2122 -81 
Q 1253 -81 787 320 
Q 322 722 231 1491 
z
" transform="scale(0.015625)"/>
      <path id="Arial-BoldMT-6f" d="M 256 1706 
Q 256 2144 472 2553 
Q 688 2963 1083 3178 
Q 1478 3394 1966 3394 
Q 2719 3394 3200 2905 
Q 3681 2416 3681 1669 
Q 3681 916 3195 420 
Q 2709 -75 1972 -75 
Q 1516 -75 1102 131 
Q 688 338 472 736 
Q 256 1134 256 1706 
z
M 1156 1659 
Q 1156 1166 1390 903 
Q 1625 641 1969 641 
Q 2313 641 2545 903 
Q 2778 1166 2778 1666 
Q 2778 2153 2545 2415 
Q 2313 2678 1969 2678 
Q 1625 2678 1390 2415 
Q 1156 2153 1156 1659 
z
" transform="scale(0.015625)"/>
      <path id="Arial-BoldMT-6c" d="M 459 0 
L 459 4581 
L 1338 4581 
L 1338 0 
L 459 0 
z
" transform="scale(0.015625)"/>
      <path id="Arial-BoldMT-64" d="M 3503 0 
L 2688 0 
L 2688 488 
Q 2484 203 2207 64 
Q 1931 -75 1650 -75 
Q 1078 -75 670 386 
Q 263 847 263 1672 
Q 263 2516 659 2955 
Q 1056 3394 1663 3394 
Q 2219 3394 2625 2931 
L 2625 4581 
L 3503 4581 
L 3503 0 
z
M 1159 1731 
Q 1159 1200 1306 963 
Q 1519 619 1900 619 
Q 2203 619 2415 876 
Q 2628 1134 2628 1647 
Q 2628 2219 2422 2470 
Q 2216 2722 1894 2722 
Q 1581 2722 1370 2473 
Q 1159 2225 1159 1731 
z
" transform="scale(0.015625)"/>
      <path id="Arial-BoldMT-20" transform="scale(0.015625)"/>
      <path id="Arial-BoldMT-76" d="M 1372 0 
L 34 3319 
L 956 3319 
L 1581 1625 
L 1763 1059 
Q 1834 1275 1853 1344 
Q 1897 1484 1947 1625 
L 2578 3319 
L 3481 3319 
L 2163 0 
L 1372 0 
z
" transform="scale(0.015625)"/>
      <path id="Arial-BoldMT-52" d="M 469 0 
L 469 4581 
L 2416 4581 
Q 3150 4581 3483 4457 
Q 3816 4334 4016 4018 
Q 4216 3703 4216 3297 
Q 4216 2781 3912 2445 
Q 3609 2109 3006 2022 
Q 3306 1847 3501 1637 
Q 3697 1428 4028 894 
L 4588 0 
L 3481 0 
L 2813 997 
Q 2456 1531 2325 1670 
Q 2194 1809 2047 1861 
Q 1900 1913 1581 1913 
L 1394 1913 
L 1394 0 
L 469 0 
z
M 1394 2644 
L 2078 2644 
Q 2744 2644 2909 2700 
Q 3075 2756 3169 2893 
Q 3263 3031 3263 3238 
Q 3263 3469 3139 3611 
Q 3016 3753 2791 3791 
Q 2678 3806 2116 3806 
L 1394 3806 
L 1394 2644 
z
" transform="scale(0.015625)"/>
      <path id="Arial-BoldMT-65" d="M 2381 1056 
L 3256 909 
Q 3088 428 2723 176 
Q 2359 -75 1813 -75 
Q 947 -75 531 491 
Q 203 944 203 1634 
Q 203 2459 634 2926 
Q 1066 3394 1725 3394 
Q 2466 3394 2894 2905 
Q 3322 2416 3303 1406 
L 1103 1406 
Q 1113 1016 1316 798 
Q 1519 581 1822 581 
Q 2028 581 2168 693 
Q 2309 806 2381 1056 
z
M 2431 1944 
Q 2422 2325 2234 2523 
Q 2047 2722 1778 2722 
Q 1491 2722 1303 2513 
Q 1116 2303 1119 1944 
L 2431 1944 
z
" transform="scale(0.015625)"/>
      <path id="Arial-BoldMT-75" d="M 2644 0 
L 2644 497 
Q 2463 231 2167 78 
Q 1872 -75 1544 -75 
Q 1209 -75 943 72 
Q 678 219 559 484 
Q 441 750 441 1219 
L 441 3319 
L 1319 3319 
L 1319 1794 
Q 1319 1094 1367 936 
Q 1416 778 1544 686 
Q 1672 594 1869 594 
Q 2094 594 2272 717 
Q 2450 841 2515 1023 
Q 2581 1206 2581 1919 
L 2581 3319 
L 3459 3319 
L 3459 0 
L 2644 0 
z
" transform="scale(0.015625)"/>
     </defs>
     <use xlink:href="#Arial-BoldMT-55"/>
     <use xlink:href="#Arial-BoldMT-6e" transform="translate(72.216797 0)"/>
     <use xlink:href="#Arial-BoldMT-69" transform="translate(133.300781 0)"/>
     <use xlink:href="#Arial-BoldMT-74" transform="translate(161.083984 0)"/>
     <use xlink:href="#Arial-BoldMT-73" transform="translate(194.384766 0)"/>
     <use xlink:href="#Arial-BoldMT-5f" transform="translate(250 0)"/>
     <use xlink:href="#Arial-BoldMT-53" transform="translate(305.615234 0)"/>
     <use xlink:href="#Arial-BoldMT-6f" transform="translate(372.314453 0)"/>
     <use xlink:href="#Arial-BoldMT-6c" transform="translate(433.398438 0)"/>
     <use xlink:href="#Arial-BoldMT-64" transform="translate(461.181641 0)"/>
     <use xlink:href="#Arial-BoldMT-20" transform="translate(522.265625 0)"/>
     <use xlink:href="#Arial-BoldMT-76" transform="translate(550.048828 0)"/>
     <use xlink:href="#Arial-BoldMT-73" transform="translate(605.664062 0)"/>
     <use xlink:href="#Arial-BoldMT-20" transform="translate(661.279297 0)"/>
     <use xlink:href="#Arial-BoldMT-52" transform="translate(689.0625 0)"/>
     <use xlink:href="#Arial-BoldMT-65" transform="translate(761.279297 0)"/>
     <use xlink:href="#Arial-BoldMT-76" transform="translate(816.894531 0)"/>
     <use xlink:href="#Arial-BoldMT-65" transform="translate(872.509766 0)"/>
     <use xlink:href="#Arial-BoldMT-6e" transform="translate(928.125 0)"/>
     <use xlink:href="#Arial-BoldMT-75" transform="translate(989.208984 0)"/>
     <use xlink:href="#Arial-BoldMT-65" transform="translate(1050.292969 0)"/>
    </g>
   </g>
  </g>
 </g>
 <defs>
  <clipPath id="p42679bec7f">
   <rect x="66.535063" y="30.447563" width="495.208937" height="497.5305"/>
  </clipPath>
 </defs>
</svg>
